<svg xmlns="http://www.w3.org/2000/svg" height="40" viewBox="0 96 960 960" width="40"><path d="M796.239 942.138q-125.688 0-247.99-59.734-122.302-59.733-218.859-156.181-96.557-96.448-156.281-218.85-59.725-122.402-59.725-247.931 0-21.499 14.439-35.938 14.439-14.439 35.938-14.439h147.253q18.284 0 31.472 11.087 13.188 11.087 16.97 30.406L386.043 377q2.797 17.348-.545 31.02-3.343 13.672-13.897 23.56l-100.116 98.405q49.74 82.334 114.181 146.27 64.442 63.936 144.197 109.108l96.021-97.464q11.819-12.247 27.312-17.265 15.493-5.018 31.935-1.474l119.833 26.108q19.099 4.526 30.376 18.013 11.276 13.487 11.276 32.886v145.355q0 21.692-14.439 36.154-14.439 14.462-35.938 14.462ZM234.275 460.573l75.761-74.834-20.681-100.921h-99.486q1.188 38.317 11.82 81.279 10.631 42.962 32.586 94.476ZM770.703 865.24v-99.631l-96.014-20.015-74.522 76.87q39.058 17.935 83.402 29.029 44.344 11.094 87.134 13.747Zm-170.442-42.87ZM234.275 460.573Z"/></svg>