<svg xmlns="http://www.w3.org/2000/svg" height="24" viewBox="0 96 960 960" width="24"><path d="M499.391 570.456q30.153-32.413 46.12-74.445 15.967-42.033 15.967-86.326 0-44.294-16.195-86.685-16.196-42.392-46.37-73.848 61.326 9.913 99.446 56.174 38.119 46.261 38.119 104.478 0 59.174-38.358 105.196-38.359 46.022-98.729 55.456Zm199.196 324.74q10.957-5.957 17.424-17.36 6.467-11.403 6.467-26.64v-76.674q0-37.848-14.76-70.044-14.761-32.195-41.196-57.63 52.543 16.304 93.913 46.674 41.37 30.369 41.37 81v78.174q0 17.652-12.424 30.076t-30.077 12.424h-60.717Zm140-287.674q-15.5 0-26.5-11t-11-26.5v-42.218H758.87q-15.5 0-26.5-11t-11-26.5q0-15.5 11-26.5t26.5-11h42.217v-42.217q0-15.5 11-26.5t26.5-11q15.5 0 26.5 11t11 26.5v42.217h42.218q15.5 0 26.5 11t11 26.5q0 15.5-11 26.5t-26.5 11h-42.218v42.218q0 15.5-11 26.5t-26.5 11Zm-515-34.587q-68.087 0-115.609-47.522-47.522-47.522-47.522-115.609 0-68.087 47.522-115.489t115.609-47.402q68.087 0 115.489 47.402t47.402 115.489q0 68.087-47.402 115.609-47.402 47.522-115.489 47.522ZM46.957 895.196q-17.653 0-30.077-12.424-12.424-12.424-12.424-30.076v-72.109q0-35.234 17.826-64.356 17.826-29.122 48.479-44.579 61.956-30.239 125.282-45.728 63.327-15.489 127.544-15.489 64.935 0 128.141 15.369 63.207 15.37 124.446 45.609 30.652 15.457 48.478 44.5 17.826 29.044 17.826 64.674v72.109q0 17.652-12.424 30.076t-30.076 12.424H46.956Z"/></svg>