<svg xmlns="http://www.w3.org/2000/svg" height="24" viewBox="0 96 960 960" width="24"><path d="M165.5 819.087q-17.652 0-30.326-12.674T122.5 776.087q0-17.652 12.674-30.326t30.326-12.674h630q17.652 0 30.326 12.674t12.674 30.326q0 17.652-12.674 30.326T795.5 819.087h-630Zm0-200.587q-17.652 0-30.326-12.674T122.5 575.5q0-17.652 12.674-30.326T165.5 532.5h630q17.652 0 30.326 12.674T838.5 575.5q0 17.652-12.674 30.326T795.5 618.5h-630Zm0-199.587q-17.652 0-30.326-12.674T122.5 375.913q0-17.652 12.674-30.326t30.326-12.674h630q17.652 0 30.326 12.674t12.674 30.326q0 17.652-12.674 30.326T795.5 418.913h-630Z"/></svg>