{
  "accessors": [
    {
      "bufferView": 2,
      "componentType": 5126,
      "count": 32216,
      "max": [
        6.5169219970703125,
        6.01826286315918,
        2.484649658203125
      ],
      "min": [
        -8.422765731811523,
        -4.429470062255859,
        -7.919339656829834
      ],
      "type": "VEC3"
    },
    {
      "bufferView": 2,
      "byteOffset": 386592,
      "componentType": 5126,
      "count": 32216,
      "max": [
        0.9996994137763977,
        0.9997984170913696,
        0.9999953508377075
      ],
      "min": [
        -0.999870240688324,
        -0.9999407529830933,
        -0.9999998807907104
      ],
      "type": "VEC3"
    },
    {
      "bufferView": 1,
      "componentType": 5126,
      "count": 32216,
      "max": [
        0.0,
        0.0
      ],
      "min": [
        0.0,
        0.0
      ],
      "type": "VEC2"
    },
    {
      "bufferView": 0,
      "componentType": 5125,
      "count": 191952,
      "type": "SCALAR"
    },
    {
      "bufferView": 2,
      "byteOffset": 773184,
      "componentType": 5126,
      "count": 4,
      "max": [
        1.0,
        1.0,
        0.0
      ],
      "min": [
        -1.0,
        -1.0,
        0.0
      ],
      "type": "VEC3"
    },
    {
      "bufferView": 2,
      "byteOffset": 773232,
      "componentType": 5126,
      "count": 4,
      "max": [
        0.0,
        0.0,
        1.0
      ],
      "min": [
        0.0,
        0.0,
        1.0
      ],
      "type": "VEC3"
    },
    {
      "bufferView": 1,
      "byteOffset": 257728,
      "componentType": 5126,
      "count": 4,
      "max": [
        1.0,
        1.0
      ],
      "min": [
        0.0,
        0.0
      ],
      "type": "VEC2"
    },
    {
      "bufferView": 0,
      "byteOffset": 767808,
      "componentType": 5125,
      "count": 6,
      "type": "SCALAR"
    }
  ],
  "asset": {
    "extras": {
      "author": "AK (https://sketchfab.com/skaf13)",
      "license": "CC-BY-4.0 (http://creativecommons.org/licenses/by/4.0/)",
      "source": "https://sketchfab.com/3d-models/red-blood-cells-c3f0295dca6244e286a0b21999c2d0ce",
      "title": "Red Blood Cells"
    },
    "generator": "Sketchfab-12.65.0",
    "version": "2.0"
  },
  "bufferViews": [
    {
      "buffer": 0,
      "byteLength": 767832,
      "name": "floatBufferViews",
      "target": 34963
    },
    {
      "buffer": 0,
      "byteLength": 257760,
      "byteOffset": 767832,
      "byteStride": 8,
      "name": "floatBufferViews",
      "target": 34962
    },
    {
      "buffer": 0,
      "byteLength": 773280,
      "byteOffset": 1025592,
      "byteStride": 12,
      "name": "floatBufferViews",
      "target": 34962
    }
  ],
  "buffers": [
    {
      "byteLength": 1798872,
      "uri": "scene.bin"
    }
  ],
  "materials": [
    {
      "doubleSided": true,
      "name": "material",
      "pbrMetallicRoughness": {
        "baseColorFactor": [
          0.178774,
          0.00170992,
          0.00561752,
          1.0
        ],
        "metallicFactor": 0.0,
        "roughnessFactor": 0.9921852718
      }
    },
    {
      "doubleSided": true,
      "name": "Material",
      "pbrMetallicRoughness": {
        "baseColorFactor": [
          0.0,
          0.0,
          0.0,
          1.0
        ],
        "metallicFactor": 0.0
      }
    }
  ],
  "meshes": [
    {
      "name": "RBC_RBC_0",
      "primitives": [
        {
          "attributes": {
            "NORMAL": 1,
            "POSITION": 0,
            "TEXCOORD_0": 2
          },
          "indices": 3,
          "material": 0,
          "mode": 4
        }
      ]
    },
    {
      "name": "Plane_Material_0",
      "primitives": [
        {
          "attributes": {
            "NORMAL": 5,
            "POSITION": 4,
            "TEXCOORD_0": 6
          },
          "indices": 7,
          "material": 1,
          "mode": 4
        }
      ]
    }
  ],
  "nodes": [
    {
      "children": [
        1
      ],
      "matrix": [
        0.007140699308365583,
        0.0,
        0.0,
        0.0,
        0.0,
        1.5855537568144803e-18,
        -0.007140699308365583,
        0.0,
        0.0,
        0.007140699308365583,
        1.5855537568144803e-18,
        0.0,
        0.0,
        0.0,
        0.0,
        1.0
      ],
      "name": "Sketchfab_model"
    },
    {
      "children": [
        2
      ],
      "matrix": [
        1.0,
        0.0,
        0.0,
        0.0,
        0.0,
        0.0,
        1.0,
        0.0,
        0.0,
        -1.0,
        0.0,
        0.0,
        0.0,
        0.0,
        0.0,
        1.0
      ],
      "name": "f4c41319e22f4b1f94730def80653132.fbx"
    },
    {
      "children": [
        3,
        5
      ],
      "name": "RootNode"
    },
    {
      "children": [
        4
      ],
      "matrix": [
        13.655753402073675,
        16.90981373761662,
        10.882509948467797,
        0.0,
        16.80904462288159,
        3.8511695601937506,
        -27.076724912240103,
        0.0,
        -15.568378710066098,
        17.216414968238873,
        -7.216021871749722,
        0.0,
        36.17219924926758,
        215.56129455566406,
        1.5338234901428223,
        1.0
      ],
      "name": "RBC"
    },
    {
      "mesh": 0,
      "name": "RBC_RBC_0"
    },
    {
      "children": [
        6
      ],
      "matrix": [
        348.72344970703125,
        0.0,
        0.0,
        0.0,
        0.0,
        -5.035509878348392e-05,
        -309.0773925781209,
        0.0,
        0.0,
        309.0773925781209,
        -5.035509878348392e-05,
        0.0,
        25.411474227905273,
        0.0,
        0.0,
        1.0
      ],
      "name": "Plane"
    },
    {
      "mesh": 1,
      "name": "Plane_Material_0"
    }
  ],
  "scene": 0,
  "scenes": [
    {
      "name": "Sketchfab_Scene",
      "nodes": [
        0
      ]
    }
  ]
}
